<?xml version="1.0" encoding="UTF-8" standalone="no"?>
<!-- Created with Inkscape (http://www.inkscape.org/) -->

<svg
   xmlns:dc="http://purl.org/dc/elements/1.1/"
   xmlns:cc="http://creativecommons.org/ns#"
   xmlns:rdf="http://www.w3.org/1999/02/22-rdf-syntax-ns#"
   xmlns:svg="http://www.w3.org/2000/svg"
   xmlns="http://www.w3.org/2000/svg"
   xmlns:sodipodi="http://sodipodi.sourceforge.net/DTD/sodipodi-0.dtd"
   xmlns:inkscape="http://www.inkscape.org/namespaces/inkscape"
   width="51.339775mm"
   height="25.857925mm"
   viewBox="0 0 181.9126 91.622569"
   id="svg2"
   version="1.1"
   inkscape:version="0.91 r13725"
   sodipodi:docname="vita.svg"
   inkscape:export-filename="/home/max/git/snabb/vita.png"
   inkscape:export-xdpi="150"
   inkscape:export-ydpi="150">
  <defs
     id="defs4">
    <inkscape:path-effect
       effect="skeletal"
       id="path-effect4585"
       is_visible="true"
       pattern="m -205.31,31.699173 c 0,0 64.89039,-42.38252 122.76001,-42.38252 57.86962,0 122.76,42.38252 122.76,42.38252 0,0 -64.89038,42.38252 -122.76,42.38252 -57.86962,0 -122.76001,-42.38252 -122.76001,-42.38252 z"
       copytype="single_stretched"
       prop_scale="1"
       scale_y_rel="false"
       spacing="0"
       normal_offset="0"
       tang_offset="0"
       prop_units="false"
       vertical_pattern="false"
       fuse_tolerance="0" />
    <inkscape:path-effect
       effect="spiro"
       id="path-effect4583"
       is_visible="true" />
    <inkscape:path-effect
       effect="skeletal"
       id="path-effect4486"
       is_visible="true"
       pattern="m -82.747844,-208.84337 c 0,0 64.89038,-42.38252 122.759997,-42.38252 57.869616,0 122.760017,42.38252 122.760017,42.38252 0,0 -64.890401,42.38252 -122.760017,42.38252 -57.869617,0 -122.759997,-42.38252 -122.759997,-42.38252 z"
       copytype="single_stretched"
       prop_scale="1"
       scale_y_rel="false"
       spacing="0"
       normal_offset="0"
       tang_offset="0"
       prop_units="false"
       vertical_pattern="false"
       fuse_tolerance="0" />
    <inkscape:path-effect
       effect="spiro"
       id="path-effect4484"
       is_visible="true" />
    <inkscape:path-effect
       fuse_tolerance="0"
       vertical_pattern="false"
       prop_units="false"
       tang_offset="0"
       normal_offset="0"
       spacing="0"
       scale_y_rel="false"
       prop_scale="1"
       copytype="single_stretched"
       pattern="m 61.57768,-125.2262 c 0,0 64.89038,-42.38252 122.76,-42.38252 57.86962,0 122.76001,42.38252 122.76001,42.38252 0,0 -64.89039,42.38252 -122.76001,42.38252 -57.86962,0 -122.76,-42.38252 -122.76,-42.38252 z"
       is_visible="true"
       id="path-effect4480"
       effect="skeletal" />
    <inkscape:path-effect
       is_visible="true"
       id="path-effect4478"
       effect="spiro" />
    <inkscape:path-effect
       effect="skeletal"
       id="path-effect4469"
       is_visible="true"
       pattern="m -126.27459,-127.51708 c 0,0 64.890387,-42.38252 122.7600066,-42.38252 57.8696204,0 122.7600034,42.38252 122.7600034,42.38252 0,0 -64.890383,42.382519 -122.7600034,42.382519 -57.8696196,0 -122.7600066,-42.382519 -122.7600066,-42.382519 z"
       copytype="single_stretched"
       prop_scale="1"
       scale_y_rel="false"
       spacing="0"
       normal_offset="0"
       tang_offset="0"
       prop_units="false"
       vertical_pattern="false"
       fuse_tolerance="0" />
    <inkscape:path-effect
       effect="spiro"
       id="path-effect4467"
       is_visible="true" />
    <inkscape:path-effect
       effect="skeletal"
       id="path-effect4179"
       is_visible="true"
       pattern="M 0,0 1,0"
       copytype="single_stretched"
       prop_scale="1"
       scale_y_rel="false"
       spacing="0"
       normal_offset="0"
       tang_offset="0"
       prop_units="false"
       vertical_pattern="false"
       fuse_tolerance="0" />
    <inkscape:path-effect
       effect="spiro"
       id="path-effect4177"
       is_visible="true" />
  </defs>
  <sodipodi:namedview
     id="base"
     pagecolor="#ffffff"
     bordercolor="#666666"
     borderopacity="1.0"
     inkscape:pageopacity="0.0"
     inkscape:pageshadow="2"
     inkscape:zoom="1.3799774"
     inkscape:cx="34.094484"
     inkscape:cy="120.86898"
     inkscape:document-units="px"
     inkscape:current-layer="layer1"
     showgrid="false"
     fit-margin-top="0"
     fit-margin-left="0"
     fit-margin-right="0"
     fit-margin-bottom="0"
     showguides="true"
     inkscape:guide-bbox="true"
     inkscape:window-width="1920"
     inkscape:window-height="1056"
     inkscape:window-x="0"
     inkscape:window-y="0"
     inkscape:window-maximized="1" />
  <metadata
     id="metadata7">
    <rdf:RDF>
      <cc:Work
         rdf:about="">
        <dc:format>image/svg+xml</dc:format>
        <dc:type
           rdf:resource="http://purl.org/dc/dcmitype/StillImage" />
        <dc:title></dc:title>
      </cc:Work>
    </rdf:RDF>
  </metadata>
  <g
     inkscape:label="Layer 1"
     inkscape:groupmode="layer"
     id="layer1"
     transform="translate(72.807857,-263.83974)">
    <path
       style="opacity:1;fill:#ffc400;fill-opacity:1;fill-rule:evenodd;stroke:none;stroke-width:1.25;stroke-linecap:round;stroke-linejoin:round;stroke-miterlimit:4;stroke-dasharray:none;stroke-dashoffset:0;stroke-opacity:1"
       d="m 81.293992,299.91522 c 45.206358,29.85509 14.298337,55.24527 -4.79494,55.54461 -19.093279,0.29934 -48.439584,-26.54778 -11.972606,-61.01326"
       id="path4606"
       inkscape:connector-curvature="0"
       sodipodi:nodetypes="csc" />
    <g
       id="g4601"
       style="fill:#e12222;fill-opacity:1"
       transform="matrix(0.29861621,0,0,0.29861621,-25.791657,180.44347)">
      <path
         inkscape:connector-curvature="0"
         id="path4581"
         d="m 282.09228,576.05752 c 0,0 -6.648,-3.18012 -15.99762,-11.76941 -9.24415,-8.49238 -21.28,-23.03012 -27.75314,-44.32423 -6.75515,-22.3406 -6.47265,-50.04116 6.0889,-76.07126 0,0 1e-5,-1e-5 1e-5,-1e-5 6.35794,-12.90932 14.73151,-24.00276 23.58504,-33.47945 0.56565,-0.60546 1.13416,-1.2053 1.70521,-1.79974 9.50299,-10.01442 19.41351,-18.65049 28.34758,-27.15645 9.20816,-8.8764 17.23999,-17.0896 23.31447,-26.33345 6.74281,-10.34368 10.98496,-20.73878 11.79201,-31.10545 0,0 -10e-6,-1e-5 -10e-6,-1e-5 0.78039,-8.49215 -0.8551,-16.66141 -3.3398,-23.30807 -2.71969,-7.24266 -6.38944,-12.64232 -9.23467,-16.17395 -2.8519,-3.53996 -4.7869,-5.26031 -4.7869,-5.26031 0,0 10.6035,2.62644 22.00967,16.73492 5.1626,6.36907 10.26534,15.34403 12.5195,26.7281 0,0 0,0 0,0 2.58335,13.64164 1.13796,29.2575 -5.08122,44.48247 -5.45516,13.50273 -13.47099,25.75617 -22.69813,36.84698 -8.80072,10.7034 -18.22052,20.28896 -26.57067,29.25535 -0.49681,0.5409 -0.99098,1.0794 -1.48264,1.61609 -7.6903,8.3945 -14.91413,16.49738 -20.27704,25.1537 0,0 0,10e-6 0,10e-6 -10.83364,17.02473 -15.77858,37.26858 -14.99205,56.03638 0.72369,18.05844 6.58384,33.3394 12.27125,43.89704 5.65153,10.49104 10.58025,16.03075 10.58025,16.03075 z"
         style="fill:#e12222;fill-opacity:1;fill-rule:evenodd;stroke:none;stroke-width:1px;stroke-linecap:butt;stroke-linejoin:miter;stroke-opacity:1" />
      <path
         style="fill:#e12222;fill-opacity:1;fill-rule:evenodd;stroke:none;stroke-width:1px;stroke-linecap:butt;stroke-linejoin:miter;stroke-opacity:1"
         d="m 405.53041,577.69691 c 0,0 6.37985,-2.53364 15.35234,-9.37679 8.87128,-6.76596 20.42165,-18.3483 26.63368,-35.31349 6.48267,-17.79894 6.21157,-39.86821 -5.8433,-60.6066 0,0 0,-2e-5 0,-2e-5 -6.10149,-10.28495 -14.13729,-19.12319 -22.63371,-26.67336 -0.54283,-0.48237 -1.08841,-0.96027 -1.63643,-1.43386 -9.11967,-7.97857 -18.63044,-14.859 -27.20414,-21.63576 -8.83673,-7.07192 -16.5446,-13.61544 -22.37404,-20.98008 -6.47083,-8.2409 -10.54187,-16.52277 -11.31637,-24.78198 0,0 10e-6,-10e-6 10e-6,-10e-6 -0.74892,-6.76577 0.82061,-13.27429 3.20508,-18.56973 2.60999,-5.77028 6.13172,-10.07224 8.86219,-12.88592 2.73685,-2.82033 4.59381,-4.19095 4.59381,-4.19095 0,0 -10.1758,2.09252 -21.12189,13.33286 -4.95435,5.07428 -9.85127,12.22473 -12.0145,21.2945 0,0 0,0 0,0 -2.47915,10.86842 -1.09206,23.30969 4.87626,35.43956 5.23512,10.75773 12.92762,20.52016 21.78257,29.3563 8.44572,8.52748 17.48556,16.16438 25.4989,23.30797 0.47677,0.43094 0.95101,0.85997 1.42284,1.28756 7.3801,6.68796 14.31255,13.14359 19.45913,20.04016 0,0 0,10e-6 0,10e-6 10.39666,13.56375 15.14214,29.69219 14.38733,44.64464 -0.6945,14.38733 -6.31827,26.56179 -11.77628,34.97316 -5.42356,8.35829 -10.15348,12.77183 -10.15348,12.77183 z"
         id="path4595"
         inkscape:connector-curvature="0" />
      <path
         inkscape:connector-curvature="0"
         id="path4599"
         d="m 298.50762,516.21956 c 0,0 -4.21092,-1.67228 -10.13307,-6.18898 -5.85533,-4.46578 -13.47897,-12.1105 -17.5791,-23.30809 -4.27879,-11.7479 -4.09986,-26.31435 3.85677,-40.00237 0,0 0,-4e-5 0,-4e-5 4.02717,-6.78839 9.33108,-12.62193 14.939,-17.60531 0.35829,-0.31837 0.71839,-0.6338 1.08008,-0.94638 6.0193,-5.26613 12.29672,-9.80744 17.95567,-14.28033 5.83252,-4.66771 10.91998,-8.98665 14.7676,-13.84755 4.27097,-5.43926 6.95798,-10.90558 7.46917,-16.35694 0,0 0,0 0,0 0.49432,-4.46564 -0.54163,-8.76148 -2.11545,-12.25666 -1.72268,-3.80857 -4.04713,-6.648 -5.84935,-8.50513 -1.8064,-1.8615 -3.03206,-2.76616 -3.03206,-2.76616 0,0 6.71636,1.38113 13.94116,8.80014 3.27002,3.34919 6.50216,8.06873 7.92995,14.05507 0,0 0,0 0,0 1.63633,7.17351 0.72081,15.38518 -3.21848,23.39129 -3.45535,7.10046 -8.53266,13.54399 -14.37723,19.37615 -5.57446,5.62842 -11.54105,10.66903 -16.83012,15.38404 -0.31469,0.28443 -0.6277,0.5676 -0.93912,0.84983 -4.87112,4.41427 -9.44677,8.67521 -12.84368,13.22717 0,0 0,1e-5 0,1e-5 -6.86214,8.95252 -9.99432,19.59783 -9.49612,29.46696 0.45839,9.49611 4.17027,17.53166 7.77273,23.08344 3.57974,5.51676 6.70165,8.42984 6.70165,8.42984 z"
         style="fill:#e12222;fill-opacity:1;fill-rule:evenodd;stroke:none;stroke-width:1px;stroke-linecap:butt;stroke-linejoin:miter;stroke-opacity:1" />
    </g>
    <text
       xml:space="preserve"
       style="font-style:normal;font-variant:normal;font-weight:300;font-stretch:normal;font-size:30px;line-height:125%;font-family:Lato;-inkscape-font-specification:Sans;text-align:center;letter-spacing:0px;word-spacing:0px;text-anchor:middle;fill:#000000;fill-opacity:1;stroke:none;stroke-width:1px;stroke-linecap:butt;stroke-linejoin:miter;stroke-opacity:1"
       x="-21.690201"
       y="348.57764"
       id="text4136"
       sodipodi:linespacing="125%"><tspan
         sodipodi:role="line"
         id="tspan4138"
         x="-21.690201"
         y="348.57764"
         style="font-style:italic;font-variant:normal;font-weight:800;font-stretch:normal;font-size:60px;font-family:Lato;-inkscape-font-specification:'Lato Ultra-Bold Italic'">Vita</tspan></text>
  </g>
</svg>
